<?xml version="1.0" standalone="no"?>
<!DOCTYPE svg PUBLIC "-//W3C//DTD SVG 20010904//EN"
 "http://www.w3.org/TR/2001/REC-SVG-20010904/DTD/svg10.dtd">
<svg version="1.0" xmlns="http://www.w3.org/2000/svg"
 width="900.000000pt" height="900.000000pt" viewBox="0 0 900.000000 900.000000"
 preserveAspectRatio="xMidYMid meet">
<metadata>
Created by potrace 1.14, written by Peter Selinger 2001-2017
</metadata>
<g transform="translate(0.000000,900.000000) scale(0.100000,-0.100000)"
fill="#000000" stroke="none">
<path d="M3570 8883 c0 -5 -8 -10 -17 -11 -10 -1 -27 -4 -38 -6 -11 -2 -23 -5
-27 -5 -5 -1 -8 -7 -8 -15 0 -7 -9 -16 -21 -19 -12 -3 -18 -10 -14 -16 3 -6 1
-11 -4 -11 -18 0 -52 -40 -45 -52 4 -6 3 -8 -3 -5 -12 8 -26 -20 -17 -34 3 -5
0 -9 -6 -9 -6 0 -8 -4 -5 -10 3 -5 0 -10 -7 -10 -9 0 -9 -3 2 -10 8 -5 10 -10
5 -10 -6 0 -11 -9 -12 -20 -1 -13 3 -18 10 -14 7 3 4 -1 -6 -9 -14 -11 -15
-16 -5 -20 10 -4 10 -6 -1 -6 -11 -1 -11 -4 0 -18 10 -11 10 -14 2 -9 -16 9
-16 1 -3 -25 8 -14 7 -19 -1 -19 -8 0 -8 -4 1 -15 9 -11 9 -15 1 -15 -7 0 -23
-12 -37 -27 -14 -16 -28 -27 -30 -25 -7 4 -43 -36 -37 -42 3 -3 -4 -4 -15 -1
-12 2 -21 1 -19 -3 3 -11 -60 -71 -67 -64 -3 3 -6 -2 -6 -12 0 -9 -4 -15 -8
-12 -10 6 -42 -29 -42 -45 0 -6 -6 -9 -14 -6 -17 7 -30 -20 -13 -27 8 -3 8 -5
-1 -5 -19 -1 -44 -29 -37 -41 4 -6 3 -10 -2 -9 -24 4 -35 -2 -29 -18 4 -10 4
-14 0 -11 -8 8 -34 -16 -34 -32 0 -6 -4 -9 -9 -6 -11 7 -23 -22 -14 -36 4 -7
1 -8 -7 -3 -10 6 -12 4 -7 -8 4 -12 2 -14 -10 -10 -12 5 -15 2 -10 -10 4 -12
2 -14 -11 -10 -9 3 -14 3 -10 -2 4 -4 -6 -26 -21 -49 -16 -22 -29 -45 -30 -51
0 -5 -5 -11 -11 -11 -21 -3 -22 -4 -11 -18 10 -12 8 -17 -9 -26 -11 -6 -18
-15 -15 -21 4 -5 1 -9 -4 -9 -6 0 -11 -12 -11 -26 0 -21 -4 -25 -17 -20 -10 4
-14 4 -11 0 4 -4 3 -16 -3 -27 -9 -15 -8 -18 3 -12 7 3 5 0 -4 -8 -10 -8 -15
-16 -13 -19 9 -9 -21 -58 -31 -50 -4 4 -2 -1 5 -10 11 -15 11 -19 -3 -24 -9
-3 -16 -10 -16 -16 0 -5 6 -6 13 -3 6 4 4 0 -5 -8 -10 -8 -15 -17 -11 -20 3
-4 0 -7 -8 -7 -11 0 -11 -2 1 -10 11 -7 11 -10 2 -10 -7 0 -10 -4 -7 -10 3 -5
1 -10 -5 -10 -6 0 -8 -4 -5 -10 3 -5 2 -10 -4 -10 -6 0 -7 -7 -4 -17 5 -12 3
-14 -8 -8 -11 6 -11 5 -2 -5 9 -9 7 -20 -8 -47 -11 -19 -14 -31 -8 -27 9 5 10
2 6 -10 -4 -10 -7 -20 -7 -22 0 -3 -5 -2 -11 2 -8 5 -8 1 0 -14 14 -26 14 -32
0 -32 -5 0 -7 5 -3 12 4 7 3 8 -5 4 -8 -6 -9 -12 -2 -20 7 -9 7 -16 -1 -24 -9
-9 -9 -12 1 -12 8 0 7 -5 -5 -17 -15 -16 -15 -17 2 -24 14 -6 15 -8 4 -8 -11
-1 -15 -10 -14 -28 1 -16 -2 -32 -6 -38 -11 -17 -12 -77 0 -70 5 3 10 2 10 -3
0 -6 -7 -13 -16 -16 -13 -5 -14 -9 -4 -21 9 -10 9 -15 1 -15 -6 0 -11 -5 -11
-11 0 -5 6 -7 13 -4 6 4 3 -1 -7 -9 -11 -9 -15 -16 -10 -16 5 0 10 -9 11 -20
1 -13 -2 -18 -10 -13 -9 5 -9 3 -1 -8 8 -10 7 -21 -2 -39 -8 -14 -14 -18 -14
-10 0 10 -5 7 -16 -8 -8 -12 -22 -22 -30 -22 -8 0 -17 -7 -20 -15 -4 -8 -11
-12 -17 -8 -6 4 -8 0 -4 -10 4 -10 2 -14 -6 -12 -7 3 -36 -18 -66 -45 -29 -28
-49 -50 -45 -50 5 0 1 -7 -10 -15 -10 -7 -15 -19 -11 -25 4 -6 1 -9 -7 -8 -7
2 -12 -5 -12 -14 1 -10 -2 -18 -7 -18 -5 0 -8 -3 -8 -7 1 -5 0 -11 -1 -15 -4
-13 -7 -27 -9 -39 0 -5 -5 -7 -11 -4 -14 8 -1 -26 19 -49 9 -11 10 -16 4 -12
-21 12 -15 -8 6 -24 11 -7 18 -17 15 -21 -6 -11 31 -30 41 -21 3 4 6 2 5 -3
-5 -21 0 -36 10 -30 6 3 10 1 10 -5 0 -6 5 -8 10 -5 6 3 10 1 10 -5 0 -6 5 -8
10 -5 6 3 10 1 10 -5 0 -6 5 -8 10 -5 6 3 10 1 10 -5 0 -6 5 -8 10 -5 6 3 10
1 10 -4 0 -6 12 -11 26 -11 21 0 24 -3 19 -21 -5 -15 -4 -19 4 -15 6 4 11 2
11 -3 0 -6 -6 -11 -12 -11 -9 0 -9 -3 1 -9 12 -8 12 -12 2 -25 -10 -12 -10
-16 -2 -16 8 0 10 -8 6 -20 -5 -14 -2 -20 10 -20 15 0 15 -1 -1 -17 -15 -16
-15 -17 2 -24 11 -4 13 -8 7 -8 -7 -1 -13 -8 -13 -17 0 -8 3 -13 8 -11 4 3 8
-18 10 -46 1 -28 8 -55 15 -59 6 -4 8 -10 4 -14 -4 -4 0 -18 9 -32 9 -13 11
-21 5 -18 -6 4 -11 2 -11 -3 0 -6 4 -11 9 -11 5 0 12 -7 15 -16 4 -10 2 -13
-7 -8 -9 6 -9 5 0 -8 7 -8 10 -18 6 -21 -3 -4 0 -7 8 -7 11 0 11 -2 -1 -10
-13 -8 -13 -10 2 -10 11 0 15 -5 12 -15 -4 -10 0 -15 12 -15 13 0 15 -3 7 -8
-10 -6 -8 -17 7 -47 24 -46 24 -48 8 -40 -7 4 -5 0 5 -8 9 -8 17 -20 17 -27 0
-7 9 -21 21 -31 11 -9 20 -20 20 -23 -3 -19 0 -27 8 -22 4 3 7 -5 6 -18 -2
-17 3 -26 17 -29 12 -3 17 -10 13 -17 -4 -6 1 -18 11 -26 11 -9 12 -12 4 -8
-12 6 -11 3 2 -12 9 -10 17 -23 16 -27 0 -5 4 -12 8 -15 4 -4 4 -1 0 6 -4 6
-5 12 -2 12 3 0 10 -10 17 -21 7 -15 8 -19 0 -15 -7 5 -9 1 -5 -8 3 -9 11 -13
16 -10 6 4 5 -2 -1 -14 -8 -15 -8 -23 0 -28 8 -4 7 -9 -2 -15 -12 -8 -11 -11
1 -19 13 -9 13 -10 0 -10 -13 0 -13 -1 0 -10 13 -9 13 -10 0 -10 -12 0 -12 -2
-1 -9 9 -6 10 -11 2 -15 -6 -4 -11 -12 -11 -17 0 -6 6 -7 13 -3 9 6 9 4 -1 -8
-10 -13 -10 -17 0 -21 10 -4 10 -7 -1 -15 -8 -6 -9 -12 -3 -16 8 -5 10 -41 2
-41 -1 0 -3 -10 -6 -23 -2 -13 0 -21 4 -18 5 3 9 -1 9 -9 0 -8 -3 -12 -7 -10
-3 2 -6 -5 -6 -15 0 -10 4 -16 8 -14 12 8 9 -11 -4 -24 -9 -9 -9 -12 3 -12 12
0 12 -2 -1 -11 -12 -8 -12 -12 -2 -16 9 -4 10 -8 2 -18 -8 -10 -8 -15 0 -20 8
-5 8 -11 -1 -21 -9 -11 -8 -14 2 -14 9 0 10 -3 3 -8 -16 -11 -23 -47 -11 -67
6 -12 6 -16 -1 -12 -6 4 -8 -6 -6 -26 1 -17 3 -32 4 -32 1 0 3 -10 4 -22 1
-12 0 -20 -4 -18 -9 5 -3 -81 6 -96 4 -8 3 -9 -4 -5 -16 10 -15 -7 1 -23 10
-12 9 -13 -7 -7 -19 7 -19 6 -1 -14 10 -11 14 -20 9 -20 -11 0 -9 -73 1 -91 5
-8 4 -10 -3 -5 -16 10 -15 -7 1 -23 10 -12 9 -13 -7 -7 -19 6 -19 6 -3 -11 10
-12 13 -23 7 -33 -5 -8 -4 -22 2 -33 6 -12 6 -17 0 -13 -10 6 -10 -43 1 -60 3
-6 2 -16 -4 -24 -12 -20 -11 -30 2 -30 5 0 7 5 3 12 -5 7 -3 8 6 3 10 -6 9
-11 -4 -21 -21 -15 -22 -24 -4 -35 7 -5 8 -9 3 -9 -12 0 -11 -92 1 -111 4 -8
3 -9 -4 -5 -16 10 -15 -7 1 -23 10 -11 10 -13 0 -7 -15 8 -18 -10 -3 -19 5 -3
6 -13 3 -21 -3 -9 0 -20 8 -25 12 -7 12 -9 0 -9 -10 0 -11 -3 -2 -14 9 -10 9
-16 1 -21 -8 -5 -8 -11 1 -21 7 -9 8 -14 1 -14 -6 0 -10 -9 -9 -20 1 -11 4
-20 8 -20 4 0 10 -7 13 -16 4 -10 2 -13 -7 -8 -9 6 -9 4 1 -8 7 -8 10 -23 6
-32 -4 -10 -1 -16 7 -16 11 0 11 -3 -1 -10 -10 -6 -11 -10 -2 -10 7 0 12 -13
12 -30 0 -16 4 -30 10 -30 5 0 8 -14 6 -30 -2 -17 1 -30 6 -30 5 0 7 -4 4 -9
-4 -5 -2 -11 4 -13 5 -1 11 -15 12 -30 1 -17 8 -28 18 -28 13 0 13 -1 0 -10
-12 -7 -12 -10 -1 -10 8 0 11 -6 7 -15 -3 -9 1 -18 10 -22 8 -3 13 -12 10 -19
-3 -8 -1 -14 4 -14 4 0 14 -16 20 -35 6 -19 15 -35 20 -35 4 0 13 -13 20 -30
7 -16 16 -27 21 -24 5 3 9 0 9 -6 0 -13 10 -26 83 -102 31 -34 57 -57 57 -52
1 5 12 -4 26 -21 15 -16 23 -23 19 -15 -4 8 4 2 18 -13 14 -16 30 -26 35 -23
6 3 13 -1 16 -10 3 -8 10 -12 16 -9 5 3 10 1 10 -4 0 -6 9 -11 21 -11 13 0 18
-4 13 -12 -5 -8 -2 -9 9 -5 10 3 17 2 17 -3 0 -9 39 -26 53 -22 4 1 7 -3 7 -9
0 -5 4 -8 9 -4 5 3 15 0 23 -7 15 -14 31 -19 65 -22 13 0 23 -4 23 -8 0 -5 9
-8 20 -8 11 0 20 -6 20 -12 0 -10 2 -10 8 -2 5 9 11 8 20 -2 7 -8 10 -14 6
-14 -3 0 -1 -6 5 -14 9 -11 9 -16 0 -22 -8 -5 -9 -3 -4 6 5 9 4 11 -4 6 -7 -5
-9 -12 -3 -19 10 -13 -10 -60 -21 -52 -4 3 -3 -1 3 -7 14 -17 13 -31 -2 -22
-10 5 -10 4 0 -7 10 -11 9 -16 -9 -30 -17 -12 -19 -18 -9 -24 9 -6 11 -4 5 5
-6 9 -4 11 5 5 10 -6 10 -11 -3 -20 -9 -7 -14 -15 -10 -18 3 -4 1 -7 -6 -7 -7
0 -9 -5 -6 -11 4 -6 -1 -17 -11 -25 -11 -9 -13 -13 -6 -9 6 3 12 1 12 -4 0 -6
-5 -11 -11 -11 -5 0 -7 -4 -4 -10 3 -5 1 -10 -5 -10 -6 0 -9 -4 -6 -8 3 -5 -4
-15 -14 -22 -15 -11 -17 -17 -8 -27 8 -11 7 -12 -6 -7 -9 3 -16 1 -16 -5 0 -6
-7 -11 -16 -11 -9 0 -12 -5 -8 -12 5 -8 2 -9 -9 -5 -10 4 -17 1 -17 -6 0 -8
-4 -6 -10 3 -8 12 -10 12 -10 1 0 -8 -7 -11 -20 -8 -10 3 -24 -1 -31 -9 -6 -8
-20 -14 -30 -14 -10 0 -21 -5 -24 -11 -4 -6 -13 -8 -21 -5 -8 3 -14 -1 -14
-10 0 -8 -5 -12 -10 -9 -6 4 -8 12 -4 18 3 7 -1 4 -10 -7 -8 -10 -19 -15 -25
-11 -6 3 -11 1 -11 -6 0 -7 -3 -9 -7 -6 -3 4 -13 1 -21 -6 -13 -9 -14 -9 -8 0
5 9 2 11 -8 7 -8 -3 -12 -13 -9 -22 4 -15 3 -15 -6 -2 -9 13 -14 13 -32 2 -11
-8 -18 -9 -14 -3 3 6 1 11 -4 11 -6 0 -11 -5 -11 -11 0 -5 -4 -7 -10 -4 -5 3
-10 1 -10 -6 0 -9 -3 -9 -14 0 -11 10 -17 8 -25 -6 -8 -13 -10 -14 -11 -3 0
10 -3 11 -11 3 -6 -6 -18 -9 -27 -6 -8 4 -13 2 -9 -3 3 -6 -9 -8 -30 -6 -28 4
-34 2 -27 -9 6 -11 3 -10 -11 1 -15 12 -17 12 -10 1 6 -11 4 -13 -8 -8 -10 3
-17 2 -17 -4 0 -6 -8 -5 -21 2 -17 9 -20 8 -14 -2 6 -9 3 -11 -8 -6 -9 3 -18
1 -21 -6 -3 -8 -5 -8 -5 2 -1 10 -4 11 -15 2 -8 -6 -18 -11 -22 -10 -23 4 -45
-2 -39 -11 3 -6 -1 -7 -9 -4 -9 3 -16 10 -16 16 0 5 -3 8 -7 5 -5 -2 -35 24
-67 56 -32 33 -53 56 -45 52 8 -5 5 1 -5 13 -21 24 -31 29 -20 10 4 -8 3 -10
-2 -5 -5 5 -10 13 -10 18 -1 5 -2 14 -3 20 0 5 -5 7 -11 4 -5 -3 -15 5 -22 19
-6 14 -16 26 -22 26 -6 0 -22 12 -36 27 -14 15 -19 23 -13 19 9 -5 11 -2 7 9
-4 9 -9 14 -11 11 -7 -7 -33 20 -33 34 0 7 -7 9 -16 6 -8 -3 -12 -2 -9 4 3 6
1 10 -4 10 -6 0 -11 7 -11 15 0 10 -7 15 -17 13 -10 -2 -18 3 -19 10 -1 6 -2
17 -3 23 0 5 -5 8 -10 5 -5 -3 -14 7 -21 23 -6 16 -23 38 -36 50 -14 12 -22
26 -19 31 3 6 2 10 -3 10 -5 0 -8 10 -7 22 1 13 -3 29 -9 37 -8 11 -8 13 2 7
9 -6 11 0 7 23 -3 18 -1 31 5 31 5 0 10 7 10 16 0 9 -5 12 -12 8 -7 -4 -3 3
10 15 24 24 29 36 10 26 -7 -4 -6 -1 3 7 9 7 14 19 12 26 -3 6 1 12 9 12 10 0
9 3 -2 10 -13 8 -12 10 3 10 15 0 16 4 7 20 -9 16 -8 19 7 13 12 -5 15 -2 10
10 -3 9 -2 17 4 17 6 0 8 4 4 9 -3 6 5 20 17 32 20 19 21 21 4 15 -18 -6 -19
-5 -4 11 8 10 14 26 13 36 -2 9 0 15 5 12 11 -7 43 82 34 96 -4 8 -3 9 4 5 7
-4 14 4 18 21 4 15 11 33 16 40 5 7 7 17 3 23 -3 5 -1 10 5 10 6 0 9 4 5 9 -3
5 -1 12 5 16 5 3 10 15 10 26 0 10 6 19 13 19 8 0 7 4 -3 10 -12 8 -12 10 -1
10 9 0 12 10 9 35 -2 19 -1 35 3 35 4 0 0 18 -8 40 -9 22 -20 40 -25 40 -5 0
-7 4 -4 9 3 4 -3 19 -15 32 -11 12 -17 29 -14 36 2 8 1 12 -3 10 -4 -3 -12 1
-19 8 -10 11 -10 15 0 18 7 3 2 6 -10 6 -14 1 -21 6 -17 14 2 7 -4 22 -15 34
-11 11 -17 23 -14 26 3 3 -4 3 -16 0 -15 -4 -21 -1 -21 12 0 15 -2 16 -17 4
-9 -8 -14 -9 -10 -3 4 7 -1 18 -10 25 -12 10 -14 10 -9 2 4 -7 2 -13 -3 -13
-6 0 -11 5 -11 11 0 5 -4 8 -9 5 -5 -3 -11 1 -15 9 -3 8 -12 15 -21 15 -8 0
-15 5 -15 11 0 6 -7 9 -15 6 -8 -4 -17 -1 -21 5 -5 7 -2 8 6 3 9 -5 11 -4 6 4
-6 9 -11 9 -22 0 -12 -10 -15 -10 -12 2 2 8 -3 13 -9 12 -7 -2 -13 2 -13 8 0
6 -6 9 -14 6 -8 -3 -22 5 -32 18 -13 17 -20 21 -26 12 -6 -9 -8 -9 -8 1 0 6
-7 12 -16 12 -8 0 -13 4 -9 9 3 5 1 12 -4 15 -5 4 -12 -2 -14 -11 -4 -17 -5
-17 -6 0 -1 16 -5 19 -33 21 -7 1 -19 9 -27 20 -11 14 -15 15 -22 5 -7 -11 -9
-10 -9 5 0 13 -5 17 -19 13 -14 -3 -18 -1 -14 11 5 12 1 14 -19 10 -19 -4 -25
-1 -21 9 4 9 -3 13 -22 13 -17 0 -24 4 -19 12 5 8 0 9 -14 6 -12 -4 -25 -1
-29 4 -3 7 -1 8 5 4 7 -4 12 -5 12 -2 0 3 -14 13 -31 22 -23 11 -29 12 -23 2
4 -7 -7 -1 -25 15 -18 15 -36 25 -41 22 -4 -3 -11 2 -14 11 -3 8 -10 12 -16 9
-5 -3 -10 -1 -10 4 0 6 -9 11 -20 11 -11 0 -20 5 -20 11 0 6 -9 9 -20 6 -12
-3 -18 -1 -14 5 4 6 1 9 -7 6 -15 -5 -22 -48 -7 -48 5 0 7 -4 3 -9 -3 -5 2
-16 10 -24 8 -9 15 -22 15 -31 0 -8 5 -18 10 -21 6 -4 8 -11 5 -16 -4 -5 1
-12 9 -15 9 -3 16 -12 16 -20 0 -8 5 -14 11 -14 6 0 9 -7 5 -15 -3 -9 0 -15
10 -15 8 0 13 -4 9 -9 -3 -5 1 -16 9 -24 8 -8 12 -17 9 -21 -4 -3 -1 -6 6 -6
7 0 9 -4 6 -10 -3 -5 -2 -10 4 -10 5 0 11 -10 13 -22 2 -13 8 -22 14 -21 5 1
11 -8 11 -19 1 -11 10 -27 20 -35 10 -8 12 -12 5 -8 -7 4 -11 1 -10 -6 4 -18
36 -49 51 -49 9 0 9 -2 -1 -8 -9 -6 -8 -13 5 -28 10 -10 18 -25 19 -31 2 -30
5 -34 14 -28 5 3 10 -2 10 -12 0 -10 7 -27 15 -37 8 -10 12 -24 8 -29 -4 -6 0
-8 11 -4 10 4 15 3 11 -3 -3 -6 0 -10 7 -10 9 0 9 -3 -2 -10 -8 -5 -10 -10 -4
-10 7 0 14 -9 17 -20 3 -11 1 -20 -5 -20 -5 0 -7 -3 -5 -7 7 -11 -19 -33 -29
-25 -5 4 -3 0 4 -9 10 -13 8 -19 -8 -34 -12 -10 -19 -24 -16 -31 3 -8 -1 -11
-10 -7 -9 3 -14 -2 -14 -15 0 -12 -5 -24 -10 -27 -6 -4 -8 -11 -5 -16 3 -5 -1
-6 -9 -3 -11 4 -14 -1 -12 -20 2 -14 0 -24 -3 -22 -3 2 -15 -6 -26 -17 -11
-11 -14 -17 -7 -12 11 6 11 3 1 -13 -7 -12 -16 -19 -20 -16 -5 2 -6 -4 -4 -16
2 -11 -1 -23 -7 -26 -7 -5 -8 -2 -3 7 6 10 5 11 -3 4 -6 -6 -13 -20 -15 -32
-2 -13 -7 -26 -12 -30 -4 -5 -5 -2 -1 5 4 6 2 12 -3 12 -6 0 -11 -7 -11 -15 0
-13 -4 -14 -20 -5 -11 6 -20 8 -20 6 0 -3 -11 -1 -25 4 -15 6 -26 6 -30 0 -4
-6 -14 -6 -27 1 -15 8 -19 8 -14 0 4 -6 3 -11 -3 -11 -5 0 -12 6 -14 13 -4 9
-8 9 -15 -2 -8 -11 -14 -12 -24 -3 -11 9 -18 9 -28 -1 -10 -10 -11 -9 -5 3 7
13 6 13 -7 2 -13 -10 -17 -10 -21 1 -4 10 -19 12 -61 7 -30 -3 -62 -2 -71 2
-10 6 -15 5 -15 -4 0 -9 -3 -9 -10 2 -9 13 -10 13 -10 0 0 -13 -1 -13 -10 0
-9 13 -10 13 -10 0 0 -13 -2 -13 -9 -1 -5 8 -16 11 -26 7 -13 -5 -16 -2 -11 9
3 9 -1 18 -9 21 -8 4 -15 12 -15 20 0 8 -5 14 -11 14 -5 0 -8 4 -5 9 3 4 -3
19 -14 32 -12 12 -23 33 -26 46 -4 13 -10 23 -15 23 -5 0 -9 6 -9 14 0 8 -10
22 -22 30 -14 10 -17 16 -8 16 10 0 8 4 -5 13 -11 9 -15 19 -10 27 5 7 4 11
-1 8 -5 -3 -14 0 -21 7 -10 11 -10 15 0 18 7 3 1 6 -13 6 -16 1 -21 4 -13 9
10 6 10 12 -3 28 -8 10 -12 13 -8 5 5 -10 3 -12 -5 -7 -9 6 -9 11 0 22 9 11 6
16 -12 23 -13 5 -20 10 -16 10 11 1 -13 44 -29 54 -8 4 -14 15 -14 22 0 8 -5
15 -11 15 -5 0 -7 4 -4 10 3 6 1 10 -5 10 -6 0 -9 4 -6 9 4 5 1 11 -4 13 -6 2
-12 13 -12 25 -2 14 -7 19 -17 15 -9 -3 -12 -1 -7 6 4 7 2 12 -4 12 -6 0 -9 4
-6 9 3 4 -7 19 -22 32 -15 13 -24 20 -20 15 4 -5 0 -15 -10 -23 -16 -14 -16
-14 2 -9 15 5 17 4 8 -7 -7 -8 -8 -18 -4 -22 4 -5 1 -4 -7 0 -11 6 -13 4 -8
-8 4 -10 1 -17 -6 -18 -7 0 -3 -4 8 -9 14 -6 15 -9 5 -9 -11 -1 -15 -10 -14
-28 1 -16 -4 -34 -10 -42 -7 -10 -7 -13 0 -8 6 3 11 0 11 -8 0 -8 -5 -12 -10
-8 -5 3 -7 -10 -4 -31 3 -20 1 -36 -3 -36 -5 0 -6 -10 -2 -22 3 -13 1 -19 -5
-15 -6 4 -10 -3 -9 -16 1 -12 -3 -25 -9 -29 -6 -5 -6 -8 2 -8 8 0 9 -9 3 -30
-5 -16 -6 -30 -2 -30 4 0 0 -5 -8 -10 -11 -7 -11 -10 -2 -10 10 0 10 -5 2 -20
-8 -15 -8 -20 2 -20 10 0 9 -3 -1 -9 -12 -8 -13 -12 -1 -25 11 -14 10 -16 -3
-10 -13 4 -15 0 -13 -23 2 -15 -1 -34 -8 -42 -9 -12 -8 -13 4 -6 13 8 13 6 2
-8 -8 -9 -11 -21 -7 -27 3 -5 0 -10 -7 -11 -7 0 -4 -4 7 -9 17 -7 17 -9 3 -9
-15 -1 -16 -5 -8 -27 6 -14 6 -23 1 -20 -5 3 -11 -1 -15 -9 -3 -8 0 -15 6 -15
7 0 7 -4 -1 -13 -8 -10 -7 -17 2 -27 9 -10 9 -11 0 -6 -9 5 -13 -1 -13 -19 0
-15 4 -24 10 -20 6 3 10 1 10 -6 0 -6 8 -18 17 -26 10 -8 12 -11 4 -7 -8 4 -2
-9 13 -29 16 -20 33 -37 38 -37 5 0 6 -4 3 -10 -3 -5 2 -10 12 -10 14 0 15 -2
4 -9 -10 -7 -9 -11 7 -22 19 -14 22 -19 22 -40 0 -5 5 -7 10 -4 6 3 10 -1 10
-9 0 -9 5 -16 11 -16 5 0 7 -4 4 -10 -3 -5 1 -10 10 -10 9 0 13 -4 10 -10 -3
-5 -1 -10 5 -10 6 0 8 -4 5 -10 -3 -5 -1 -10 4 -10 6 0 11 -9 11 -21 0 -11 4
-17 10 -14 5 3 10 1 10 -5 0 -6 4 -9 9 -5 6 3 8 -3 6 -14 -2 -13 3 -21 17 -24
11 -3 17 -10 13 -16 -5 -10 7 -15 28 -12 4 0 7 -7 7 -17 0 -14 2 -15 10 -2 8
13 10 12 10 -3 0 -10 4 -15 10 -12 5 3 10 0 10 -7 0 -8 3 -9 8 -3 8 12 22 13
39 2 7 -5 31 -9 52 -10 22 0 37 -5 34 -9 -2 -5 7 -7 21 -4 14 3 29 0 32 -6 5
-7 2 -8 -7 -3 -8 5 -11 4 -6 0 11 -13 77 -13 78 0 0 5 4 1 9 -10 5 -11 9 -14
9 -7 1 9 9 9 36 -3 20 -8 33 -10 29 -4 -4 8 0 8 14 0 11 -6 34 -12 52 -13 17
-1 34 -6 37 -11 3 -5 9 -3 14 4 7 11 9 9 9 -6 0 -17 2 -17 10 -5 9 13 10 13
10 0 0 -12 2 -12 9 -2 6 11 10 10 15 -3 5 -14 9 -15 21 -5 10 9 15 9 15 1 0
-6 15 -11 33 -11 18 0 39 -6 46 -13 11 -9 13 -9 7 0 -4 7 -2 13 3 13 6 0 11
-4 11 -10 0 -5 9 -10 19 -10 11 0 23 -5 27 -11 3 -6 14 -9 24 -6 11 3 17 -1
16 -11 0 -9 9 -21 21 -27 13 -7 20 -15 16 -18 -3 -4 1 -7 10 -7 15 0 18 -5 16
-26 0 -4 10 -12 23 -18 12 -6 24 -19 26 -29 4 -22 48 -67 57 -59 3 4 3 -1 -1
-11 -4 -12 0 -19 14 -24 12 -5 21 -12 22 -18 1 -5 9 -9 18 -8 10 1 11 0 5 -3
-18 -8 -16 -24 3 -24 8 0 12 -4 9 -10 -3 -5 -1 -10 4 -10 6 0 11 -7 11 -16 0
-8 4 -13 9 -10 5 4 8 -2 7 -11 -2 -10 -11 -20 -22 -22 -10 -2 -25 -8 -33 -15
-12 -9 -13 -8 -7 3 6 9 5 12 -5 9 -8 -3 -13 -11 -11 -18 2 -10 -1 -10 -10 -4
-7 6 -19 9 -25 8 -7 -1 -18 -2 -24 -3 -5 0 -7 -7 -3 -13 6 -10 4 -10 -8 0 -17
14 -51 6 -42 -10 5 -7 1 -7 -12 0 -14 8 -21 6 -32 -6 -13 -16 -13 -16 -8 1 5
16 4 16 -22 0 -27 -17 -27 -17 -12 2 14 19 14 19 -5 4 -11 -9 -28 -17 -37 -18
-10 -1 -31 -2 -47 -3 -17 -1 -27 -6 -24 -11 3 -6 -7 -8 -26 -5 -17 2 -31 1
-31 -3 0 -5 -7 -5 -17 -2 -12 5 -14 3 -8 -7 6 -9 4 -11 -4 -5 -7 4 -25 8 -41
9 -23 2 -27 -1 -18 -11 8 -10 7 -12 -5 -7 -8 3 -25 0 -37 -6 -18 -10 -21 -9
-15 1 6 8 4 10 -6 3 -17 -10 -38 -15 -62 -15 -9 0 -15 -4 -13 -8 3 -4 -1 -8
-9 -8 -8 0 -12 4 -10 8 3 3 -3 6 -13 5 -17 -1 -42 -19 -42 -31 0 -3 6 -3 13 1
9 6 9 5 0 -8 -7 -8 -10 -18 -6 -21 3 -4 0 -7 -7 -7 -9 0 -8 -5 5 -14 18 -13
18 -13 -1 -24 -12 -7 -14 -12 -5 -12 11 0 11 -3 0 -17 -7 -10 -10 -15 -5 -11
10 8 36 -14 29 -25 -2 -4 2 -10 11 -13 9 -3 12 -12 9 -22 -5 -12 -2 -14 11 -9
9 4 15 3 11 -2 -3 -5 -1 -12 5 -16 6 -4 8 -10 5 -15 -3 -5 4 -11 15 -15 11 -3
20 -11 20 -16 0 -12 14 -29 65 -82 22 -22 29 -32 15 -22 -23 17 15 -27 62 -73
10 -9 18 -23 18 -32 0 -13 1 -13 10 0 7 11 10 12 10 2 0 -17 26 -43 34 -35 3
4 6 0 6 -9 0 -18 44 -61 53 -51 7 6 11 -13 7 -32 -1 -5 1 -7 5 -3 8 8 75 -58
75 -75 0 -8 4 -6 10 3 8 13 10 13 10 -1 0 -9 11 -24 24 -35 14 -10 23 -21 20
-26 -3 -4 1 -8 9 -8 8 0 21 -8 28 -17 12 -14 12 -16 -1 -9 -8 4 -4 -2 10 -13
14 -11 30 -19 37 -16 7 2 10 -2 6 -11 -4 -10 0 -12 13 -8 11 4 16 3 11 -1 -9
-10 21 -45 39 -45 6 0 25 -15 41 -33 15 -18 26 -28 23 -22 -3 6 2 3 12 -7 9
-10 21 -18 28 -18 6 0 8 -5 5 -10 -3 -6 1 -10 9 -10 8 0 22 -10 30 -21 9 -13
21 -19 30 -16 10 4 13 1 9 -9 -3 -8 1 -14 10 -14 8 0 26 -12 41 -26 16 -17 26
-22 26 -13 0 11 2 11 9 -1 6 -8 8 -17 5 -21 -2 -4 1 -11 7 -15 8 -4 9 -3 5 4
-4 7 -4 12 -1 12 11 0 35 -28 35 -40 0 -6 4 -8 10 -5 5 3 10 1 10 -6 0 -8 4
-8 16 1 8 8 14 9 13 4 -1 -5 -1 -16 1 -24 1 -11 4 -9 10 5 7 17 9 18 9 2 1 -9
12 -23 26 -29 14 -6 25 -15 25 -20 0 -4 7 -8 15 -8 8 0 15 -4 15 -10 0 -5 9
-10 19 -10 11 0 23 -5 27 -12 5 -7 3 -8 -6 -3 -8 5 -11 4 -6 -3 4 -6 13 -9 21
-5 8 3 15 0 15 -7 0 -7 8 -10 19 -7 13 3 18 1 15 -8 -3 -8 8 -17 30 -25 21 -7
33 -16 30 -22 -4 -6 -2 -8 4 -4 6 3 13 2 17 -4 4 -6 11 -8 16 -5 5 4 9 1 9 -5
0 -6 5 -8 10 -5 6 3 10 1 10 -5 0 -6 4 -8 10 -5 5 3 10 0 10 -9 0 -8 7 -13 18
-11 22 3 44 -14 35 -29 -4 -6 2 -4 13 4 10 8 16 10 12 6 -8 -9 41 -40 49 -32
3 2 14 -5 24 -15 11 -11 26 -18 32 -16 7 2 18 -3 25 -12 8 -9 11 -11 8 -5 -3
6 1 11 8 11 8 0 12 -7 9 -14 -3 -8 -2 -13 3 -12 22 4 35 -2 28 -13 -4 -6 -3
-8 3 -5 5 3 22 0 37 -8 18 -10 25 -11 21 -2 -4 7 -1 5 7 -4 7 -9 19 -14 25
-12 7 3 20 -3 29 -12 14 -13 19 -14 25 -3 7 10 9 9 9 -5 0 -10 5 -15 10 -12 6
3 10 1 10 -4 0 -6 5 -11 11 -11 5 0 7 5 3 12 -4 6 10 -2 31 -18 22 -16 36 -23
31 -17 -11 19 5 16 21 -4 8 -10 11 -12 8 -4 -5 8 3 6 21 -5 15 -11 25 -13 21
-6 -5 6 -4 12 2 12 6 0 11 -8 12 -17 0 -12 2 -13 6 -5 4 10 8 9 19 -5 11 -14
13 -15 14 -3 0 12 3 11 11 -2 5 -10 15 -18 20 -18 6 0 7 4 4 10 -3 6 1 7 9 4
9 -3 16 -11 16 -16 0 -6 9 -8 20 -5 11 3 18 2 15 -3 -6 -10 20 -20 31 -12 5 4
8 5 7 3 -7 -12 44 -27 61 -18 12 6 16 6 12 -1 -3 -5 9 -13 27 -17 17 -4 39 -9
47 -12 8 -2 25 -4 38 -5 12 0 22 -4 22 -9 0 -14 28 -11 33 4 3 7 6 5 6 -5 1
-12 6 -15 18 -11 11 5 14 3 8 -6 -6 -10 -3 -11 15 -1 20 11 22 10 17 -4 -5
-12 -3 -15 5 -10 18 11 57 11 51 0 -4 -5 1 -7 10 -3 10 4 17 1 17 -6 0 -8 4
-6 10 3 8 12 10 12 10 -5 0 -11 4 -15 8 -10 10 14 47 12 66 -4 11 -9 16 -10
16 -2 0 8 5 9 19 1 11 -5 34 -10 51 -10 20 0 29 -4 24 -11 -4 -8 0 -8 15 0 16
9 21 9 21 -1 0 -10 2 -10 9 1 5 8 11 9 15 3 3 -6 17 -9 31 -7 14 1 27 -1 30
-4 2 -4 18 -6 34 -5 17 1 31 -1 31 -5 0 -9 37 -7 46 2 4 4 14 1 22 -6 13 -10
14 -9 7 3 -8 13 -6 13 8 2 11 -9 37 -13 82 -10 39 2 65 -1 66 -7 0 -5 4 -1 9
10 l9 20 0 -20 c1 -15 3 -17 10 -6 7 10 9 11 13 1 2 -7 18 -14 35 -14 17 -1
29 2 26 7 -2 4 1 7 6 7 6 0 11 -5 11 -10 0 -7 7 -7 21 1 16 8 20 8 14 -1 -6
-9 -3 -9 12 -2 11 6 25 7 33 2 8 -5 22 -4 32 1 13 7 18 6 18 -2 0 -8 5 -7 17
2 14 12 15 12 9 1 -7 -11 -4 -12 11 -3 11 6 24 7 27 3 4 -4 12 1 18 11 9 18
11 18 29 1 12 -11 19 -13 19 -5 0 7 4 9 10 6 15 -9 90 -12 90 -3 0 4 6 5 14 2
8 -3 17 -1 21 5 3 6 11 11 16 11 6 0 7 -6 3 -12 -6 -10 -5 -10 7 -1 12 10 18
10 27 1 9 -9 12 -9 12 1 0 10 3 11 14 2 10 -8 16 -9 21 -1 3 6 11 8 16 5 5 -4
9 2 9 12 0 11 3 14 8 7 4 -6 17 -13 30 -17 19 -4 22 -2 18 10 -5 12 -3 13 7 5
10 -9 17 -8 27 1 10 10 11 9 5 -1 -6 -11 -3 -12 11 -4 11 5 27 8 37 7 9 -2 17
1 17 6 0 5 11 4 26 -1 14 -6 23 -6 20 -1 -3 5 1 12 10 15 10 4 13 2 8 -7 -6
-9 -5 -9 7 0 12 9 18 10 27 1 8 -8 13 -8 17 4 4 10 15 13 32 10 15 -3 24 -1
20 5 -3 5 9 9 29 8 25 -2 34 2 34 14 0 14 2 14 10 1 8 -12 13 -13 30 -2 25 15
33 15 25 0 -4 -7 1 -4 9 6 12 15 16 16 16 5 0 -12 2 -12 10 1 5 8 10 11 10 7
0 -4 8 -3 18 2 13 7 23 6 32 -2 10 -9 11 -9 6 1 -5 7 -1 12 9 12 10 0 13 5 9
13 -5 7 0 6 11 -3 14 -11 19 -12 22 -2 3 6 9 10 14 6 5 -3 9 1 9 8 0 9 3 9 10
-2 6 -9 10 -11 10 -3 0 7 7 10 15 6 9 -3 23 3 31 13 9 11 13 13 9 7 -3 -7 -1
-13 4 -13 6 0 11 7 11 16 0 14 3 14 15 4 9 -7 15 -8 15 -2 0 5 7 13 16 16 10
4 13 2 7 -7 -4 -6 6 -4 21 7 18 11 26 13 21 5 -6 -11 -5 -12 6 -1 7 6 21 12
32 12 10 0 16 4 12 9 -3 5 0 13 6 17 8 4 9 3 5 -4 -4 -7 -1 -12 8 -12 9 0 16
5 16 12 0 6 3 8 7 5 3 -4 13 -1 21 6 13 9 14 9 8 0 -5 -9 -2 -11 8 -7 9 3 13
11 9 17 -3 6 -1 7 5 3 6 -4 19 -2 29 3 10 6 37 15 61 21 23 6 41 14 38 18 -3
4 3 8 12 9 31 3 72 22 72 35 0 9 3 9 10 -2 8 -12 10 -12 16 3 5 15 9 15 22 5
12 -10 14 -10 8 -1 -4 8 -2 13 4 13 6 0 8 6 4 12 -5 10 -4 10 6 1 10 -9 16 -8
28 3 8 8 19 13 26 11 6 -2 17 3 24 12 11 13 12 13 7 1 -4 -8 3 -4 14 9 13 14
21 18 21 10 1 -11 3 -10 13 2 14 18 73 49 94 49 7 0 13 5 13 11 0 5 5 7 10 4
6 -3 10 -1 10 5 0 6 5 8 10 5 6 -3 10 -1 10 4 0 6 6 11 14 11 8 0 18 5 22 12
5 7 3 8 -6 3 -9 -6 -11 -4 -5 4 5 9 10 10 18 2 7 -7 17 -3 34 15 13 14 23 19
23 12 1 -8 8 -4 19 9 10 12 21 19 25 16 3 -4 6 -1 6 6 0 7 5 9 10 6 6 -3 10
-1 10 6 0 7 3 10 6 6 4 -3 13 1 21 9 8 8 19 12 24 9 5 -4 9 1 9 10 0 9 4 14 9
11 5 -3 11 0 14 8 3 8 19 17 36 21 17 3 29 12 28 18 -1 7 4 11 11 9 14 -3 57
24 57 36 0 4 6 6 13 4 8 -2 12 0 9 5 -3 4 1 14 9 21 8 7 14 10 14 7 0 -3 11 2
25 11 14 9 22 20 19 25 -3 5 1 6 9 3 9 -3 22 4 31 17 8 13 18 20 22 17 8 -9
46 31 39 41 -2 5 3 8 13 7 9 0 16 4 15 11 -2 7 4 10 12 7 8 -4 15 -1 15 5 0 6
5 11 11 11 17 0 41 29 33 41 -4 8 -3 9 4 5 6 -4 20 1 31 11 11 10 35 31 55 48
19 16 32 34 29 39 -4 5 -1 6 5 2 7 -4 12 -2 12 4 0 6 5 8 10 5 6 -3 10 -1 10
4 0 6 3 10 8 10 19 -3 25 2 12 11 -13 8 -13 10 2 10 10 0 22 9 28 20 6 11 14
19 18 17 4 -2 15 4 25 15 9 10 14 18 10 18 -5 0 0 7 11 15 10 8 15 19 10 26
-4 8 -3 10 4 5 13 -8 43 5 45 20 1 5 5 8 10 6 4 -1 6 1 5 5 -2 5 19 29 45 56
26 26 47 52 47 58 0 5 5 7 10 4 9 -6 14 8 11 28 -1 5 2 6 7 3 4 -2 23 14 42
37 19 23 45 51 56 64 12 12 19 24 16 27 -3 3 2 6 11 6 11 0 14 5 10 17 -5 12
-3 14 7 8 10 -6 12 -4 7 8 -4 12 -2 14 11 10 9 -3 14 -3 10 2 -4 4 3 16 15 27
12 11 15 17 7 13 -10 -4 -9 -2 2 8 10 8 15 17 11 20 -3 4 2 7 12 7 10 0 16 3
12 6 -3 4 4 15 16 26 12 11 15 17 7 13 -8 -4 -4 3 10 15 14 12 18 19 10 15 -8
-4 -4 2 9 13 14 11 21 24 17 31 -5 7 -2 10 6 9 7 -2 12 5 12 14 -1 10 3 15 8
12 5 -3 12 3 15 15 3 12 10 18 17 14 6 -4 5 1 -3 11 -8 9 -20 15 -28 12 -7 -3
-13 -1 -13 5 0 6 -6 7 -17 1 -12 -7 -24 -5 -40 5 -13 8 -23 12 -23 9 0 -4 -9
-2 -20 4 -15 8 -20 8 -20 -2 0 -10 -2 -10 -9 1 -5 7 -25 14 -45 14 -20 1 -36
5 -36 9 0 5 -10 4 -21 -3 -17 -8 -20 -8 -14 1 6 9 0 11 -23 8 -17 -2 -29 -1
-27 3 3 4 -2 10 -11 13 -10 4 -13 2 -8 -7 5 -8 2 -7 -9 2 -12 10 -17 10 -17 2
0 -9 -5 -8 -14 2 -8 8 -27 13 -43 11 -15 -1 -31 3 -35 9 -6 9 -13 9 -29 -1
-19 -12 -21 -12 -17 0 7 18 -33 22 -44 5 -5 -8 -8 -7 -8 5 0 11 -10 16 -35 17
-58 3 -65 4 -65 14 0 5 -6 4 -14 -2 -11 -9 -15 -9 -19 1 -4 10 -8 10 -16 -2
-9 -13 -11 -12 -11 3 0 14 -4 16 -19 7 -14 -7 -22 -7 -27 2 -5 7 -3 8 6 3 9
-6 11 -4 6 4 -5 7 -10 10 -13 7 -3 -2 -16 -1 -30 5 -16 6 -22 6 -18 -1 9 -15
-2 -12 -33 7 -26 17 -27 17 -12 -1 14 -18 14 -19 -10 -5 -14 7 -28 13 -32 14
-4 0 -13 7 -20 15 -11 12 -11 12 5 1 15 -12 17 -11 17 8 0 11 6 21 14 21 7 0
19 7 26 15 11 13 10 14 -5 8 -17 -6 -17 -5 1 14 10 11 23 18 28 15 5 -3 6 3 2
14 -4 10 -4 15 0 11 10 -9 45 33 37 46 -3 5 -1 7 4 4 14 -9 37 19 28 32 -3 7
0 8 9 5 10 -4 16 -1 16 9 0 9 5 19 12 23 7 5 8 3 3 -6 -5 -8 -4 -11 3 -6 6 4
8 14 5 23 -5 13 -2 15 11 10 12 -5 16 -3 13 5 -2 7 6 23 19 34 12 12 20 25 17
28 -4 3 -1 6 6 6 7 0 11 6 8 14 -4 10 0 12 14 9 11 -3 19 -2 17 3 -4 11 44 60
54 57 4 -2 5 4 2 12 -4 10 0 15 15 15 12 0 21 5 21 11 0 6 7 9 15 5 8 -3 19 2
24 12 6 10 11 12 11 4 0 -10 5 -10 20 -2 11 6 25 8 30 5 6 -3 10 1 10 10 0 15
1 15 16 1 8 -9 18 -16 21 -16 4 0 3 3 0 7 -12 12 27 32 40 21 9 -7 13 -7 13 1
0 7 5 9 10 6 6 -4 18 -1 27 7 12 9 15 9 9 1 -4 -7 -3 -13 3 -13 5 0 13 5 16
10 3 6 17 8 31 6 13 -3 24 -1 24 4 0 5 7 6 17 3 12 -5 14 -3 8 7 -6 10 -4 10
11 2 14 -8 21 -6 32 6 7 10 11 11 7 5 -3 -7 -1 -13 4 -13 6 0 11 5 11 11 0 5
5 7 10 4 6 -4 18 -1 27 7 12 9 15 9 9 1 -4 -7 -2 -13 3 -13 6 0 11 4 11 9 0 5
7 12 16 15 8 3 12 2 9 -4 -3 -6 1 -10 10 -10 12 0 15 5 11 16 -5 13 -3 14 6 6
22 -17 24 -18 43 -2 17 13 18 13 10 0 -7 -12 -6 -13 7 -3 8 7 19 9 23 5 5 -4
5 2 1 12 -5 14 -3 16 6 9 19 -15 46 -12 53 5 4 11 8 12 20 2 10 -8 15 -9 15
-2 0 6 7 9 15 6 9 -4 15 0 15 10 0 9 4 15 8 14 14 -5 73 63 66 75 -4 7 -4 9 0
5 10 -8 36 14 29 25 -2 4 1 7 7 7 6 0 9 4 6 8 -3 5 4 15 15 22 10 8 19 20 19
27 0 7 5 13 11 13 6 0 9 7 5 15 -3 8 0 14 7 12 7 -1 11 6 11 15 -1 10 2 15 7
12 5 -3 13 6 19 20 5 14 14 26 19 26 6 0 8 7 5 15 -5 11 -2 13 12 8 12 -4 15
-3 10 5 -4 7 -1 15 8 18 9 3 14 9 11 14 -2 4 4 16 15 27 10 12 16 24 13 27 -4
3 -2 6 3 6 5 0 10 11 10 25 1 14 -2 25 -8 25 -5 0 -7 4 -3 9 3 5 7 23 9 39 2
23 0 29 -12 25 -12 -5 -12 -2 -4 14 6 11 8 23 5 27 -4 4 -8 16 -10 28 -2 12
-8 28 -15 35 -9 11 -7 12 8 6 17 -6 17 -5 5 10 -7 9 -10 17 -5 17 5 0 1 5 -9
11 -14 8 -16 14 -7 24 7 8 8 20 4 27 -5 7 -7 24 -5 37 2 17 -1 21 -11 15 -10
-6 -10 -4 1 9 11 14 11 17 0 17 -11 0 -11 2 1 10 12 8 12 10 1 10 -11 0 -11 3
0 17 8 10 9 14 2 10 -7 -5 -12 -1 -12 10 -1 10 -2 37 -2 60 -1 24 -5 40 -10
37 -12 -7 -11 3 2 28 6 12 7 18 1 14 -5 -3 -12 1 -15 8 -3 8 -1 17 6 20 7 2 3
5 -8 5 -16 1 -17 3 -6 10 12 8 12 12 2 25 -10 12 -11 19 -2 30 9 10 9 16 1 21
-6 4 -9 13 -6 21 3 8 1 14 -4 14 -6 0 -10 5 -10 11 0 5 4 7 10 4 6 -3 7 1 4 9
-3 9 -10 16 -16 16 -5 0 -6 5 -3 11 4 6 -2 5 -14 -3 -12 -7 -21 -18 -21 -25 0
-7 -8 -13 -17 -13 -15 0 -16 -2 -3 -10 10 -6 11 -10 3 -10 -7 0 -13 -7 -13
-15 0 -9 -7 -18 -15 -21 -8 -4 -15 -10 -15 -16 0 -5 6 -6 13 -3 6 4 5 1 -4 -7
-8 -7 -18 -21 -22 -30 -3 -10 -11 -18 -17 -18 -6 0 -8 -5 -5 -10 3 -5 1 -10
-5 -10 -7 0 -10 -6 -7 -14 3 -8 -1 -17 -9 -20 -9 -3 -12 -11 -8 -18 5 -8 2 -9
-12 -4 -10 4 -15 4 -11 0 4 -4 0 -18 -9 -32 -11 -17 -12 -22 -3 -17 8 5 1 -4
-14 -18 -15 -15 -25 -32 -22 -37 3 -6 1 -10 -4 -10 -6 0 -11 -5 -11 -11 0 -6
-6 -17 -12 -24 -35 -39 -37 -42 -25 -54 9 -10 9 -12 -3 -9 -8 2 -14 -3 -12 -9
1 -7 -6 -13 -15 -13 -15 0 -16 -2 -3 -10 11 -7 11 -10 2 -10 -7 0 -10 -5 -7
-10 4 -6 1 -9 -6 -8 -7 2 -13 -2 -14 -9 0 -7 -9 -19 -20 -28 -11 -9 -15 -14
-8 -11 7 4 11 -1 10 -13 0 -11 -6 -17 -14 -14 -7 3 -13 -2 -13 -11 0 -9 -5
-16 -11 -16 -6 0 -9 -6 -6 -14 4 -10 -3 -12 -30 -9 -25 3 -33 0 -27 -8 5 -8 3
-9 -7 -3 -23 14 -49 15 -49 1 0 -8 -4 -7 -10 3 -8 12 -10 12 -11 -5 0 -11 -3
-14 -6 -7 -6 16 -33 16 -33 0 0 -9 -3 -9 -8 -3 -10 16 -54 17 -45 2 4 -7 -1
-6 -11 2 -14 12 -19 12 -25 2 -6 -10 -10 -9 -14 4 -5 13 -11 14 -27 5 -11 -6
-20 -8 -20 -4 0 3 -8 0 -17 -7 -15 -12 -16 -12 -8 1 6 11 3 10 -11 -2 -19 -17
-21 -17 -38 0 -11 9 -16 12 -13 6 4 -7 -5 -11 -23 -12 -17 0 -30 5 -30 11 0 8
-4 7 -9 -2 -8 -12 -12 -12 -26 3 -10 9 -15 20 -11 23 3 3 -5 16 -17 27 -13 12
-22 27 -19 34 2 7 -1 12 -7 12 -6 0 -11 7 -11 15 0 8 -4 15 -9 15 -9 0 -24 38
-22 54 1 5 -5 4 -13 -3 -12 -10 -14 -9 -12 6 2 10 -4 24 -13 31 -9 8 -10 11
-4 7 9 -4 11 -1 7 9 -3 9 -14 16 -23 16 -13 0 -13 2 -2 9 10 7 8 12 -10 25
-13 9 -19 16 -14 16 5 0 0 7 -11 16 -10 8 -12 12 -4 8 13 -7 13 -5 1 9 -7 9
-18 14 -25 10 -6 -4 -5 1 3 10 7 10 9 17 3 17 -6 0 -9 8 -7 18 2 9 4 19 4 22
1 3 6 -2 12 -10 8 -12 9 -10 4 7 -3 12 -1 24 5 28 6 3 8 11 5 16 -3 5 0 6 8 3
8 -3 14 2 15 11 1 8 3 22 4 30 1 8 8 15 16 15 9 0 12 3 9 6 -4 4 2 19 13 34
11 16 20 35 20 44 0 9 6 19 14 22 8 3 13 14 11 25 -2 11 0 17 6 14 5 -4 9 1 9
10 0 9 4 14 9 10 5 -3 13 0 17 6 4 8 3 9 -4 5 -19 -12 -14 3 14 39 14 19 23
39 19 45 -3 5 -1 10 5 10 6 0 16 14 21 30 6 17 15 30 20 30 4 0 6 7 3 15 -4 8
-1 15 5 15 6 0 11 7 11 15 0 9 7 18 15 21 8 4 12 10 9 15 -3 5 0 9 7 9 7 0 10
3 6 6 -3 4 1 13 9 21 8 9 13 22 10 30 -4 9 -2 11 6 7 8 -5 9 -2 5 10 -4 9 -3
15 1 12 4 -2 12 6 18 19 9 19 8 26 -8 39 -17 15 -19 15 -28 -6 -5 -13 -9 -17
-9 -10 -1 6 -6 12 -13 12 -6 0 -8 -3 -5 -7 7 -6 -38 -33 -56 -33 -5 0 -16 -8
-24 -17 -8 -10 -12 -12 -8 -5 3 6 1 12 -4 12 -6 0 -11 -7 -11 -15 0 -8 -3 -14
-7 -14 -22 4 -35 -3 -30 -14 4 -10 -2 -13 -18 -9 -15 2 -30 -3 -41 -17 -13
-15 -20 -17 -26 -8 -5 8 -8 5 -8 -8 0 -17 -2 -17 -10 -5 -9 13 -10 13 -10 0 0
-9 -10 -16 -22 -17 -12 -1 -28 -10 -37 -19 -15 -17 -15 -17 4 -3 18 13 19 13
6 -3 -7 -10 -18 -15 -23 -12 -5 3 -16 -2 -24 -12 -15 -18 -15 -18 -9 1 4 15 0
13 -20 -9 -15 -17 -25 -23 -25 -15 -1 10 -5 8 -15 -5 -8 -11 -15 -16 -15 -12
0 4 -13 -2 -29 -13 -16 -12 -37 -21 -46 -21 -9 0 -13 -4 -10 -10 3 -5 -1 -11
-9 -11 -36 -3 -41 -6 -38 -18 2 -8 -3 -11 -12 -8 -9 4 -20 -1 -25 -11 -8 -14
-11 -14 -11 -2 0 12 -3 11 -11 -3 -5 -9 -16 -17 -24 -17 -8 0 -24 -10 -36 -22
-12 -13 -19 -17 -14 -10 6 11 3 11 -13 1 -12 -7 -18 -17 -16 -21 3 -4 0 -8 -5
-8 -6 0 -11 5 -11 10 0 6 -10 2 -22 -9 -11 -11 -25 -18 -30 -15 -7 5 -12 -10
-9 -28 0 -5 -6 -8 -15 -8 -14 0 -14 -3 -4 -15 11 -13 10 -14 -5 -9 -13 5 -16
4 -11 -4 4 -7 2 -12 -4 -12 -6 0 -9 -4 -5 -9 3 -6 -7 -22 -22 -37 -16 -15 -20
-22 -10 -15 23 18 22 9 -3 -19 -11 -12 -17 -28 -13 -34 3 -6 2 -8 -2 -3 -5 4
-17 -5 -26 -20 -14 -21 -15 -29 -6 -36 9 -7 9 -10 0 -14 -7 -2 -13 -9 -13 -14
0 -6 4 -8 9 -5 4 3 7 -12 5 -34 -2 -21 1 -42 6 -45 6 -4 8 -11 5 -16 -4 -5 1
-9 9 -9 19 0 22 -20 4 -20 -8 0 -5 -7 6 -15 11 -8 17 -15 13 -15 -4 0 -1 -13
7 -29 9 -16 12 -31 9 -35 -4 -3 -1 -6 5 -6 6 0 9 -7 5 -17 -4 -11 -3 -14 5 -9
8 5 12 -1 12 -18 0 -14 11 -45 24 -70 16 -30 20 -47 12 -50 -6 -2 0 -8 12 -12
15 -4 19 -9 12 -14 -8 -5 -7 -11 4 -23 19 -19 21 -31 4 -21 -7 4 -4 -3 7 -15
11 -13 20 -28 21 -34 0 -7 2 -22 2 -34 1 -13 7 -23 13 -23 5 0 7 5 3 12 -4 7
-3 8 5 4 8 -6 9 -11 2 -20 -8 -9 -6 -18 7 -29 13 -12 17 -28 16 -52 -2 -26 0
-34 9 -28 9 5 9 3 0 -8 -7 -9 -10 -26 -8 -39 3 -13 -2 -35 -11 -47 -8 -13 -12
-28 -9 -33 3 -6 -1 -10 -10 -10 -9 0 -14 -4 -11 -9 4 -5 -6 -19 -21 -31 -16
-12 -22 -18 -14 -14 10 5 12 3 7 -5 -5 -7 -14 -10 -22 -7 -8 3 -13 2 -12 -2 4
-11 -35 -52 -44 -46 -4 3 -5 -2 -2 -10 4 -9 -1 -18 -10 -22 -9 -3 -16 -13 -16
-22 0 -8 -3 -13 -6 -9 -8 8 -33 -16 -27 -25 2 -5 -3 -8 -12 -8 -9 0 -13 -4
-10 -10 3 -5 1 -10 -5 -10 -6 0 -18 -7 -26 -15 -9 -8 -13 -15 -9 -15 3 0 -9
-14 -27 -31 -18 -18 -26 -28 -18 -25 8 4 6 0 -5 -9 -11 -9 -19 -21 -18 -26 2
-5 0 -8 -5 -8 -19 3 -33 -2 -27 -10 3 -5 -4 -13 -16 -16 -12 -4 -18 -12 -15
-21 3 -7 2 -13 -2 -13 -20 3 -33 -2 -27 -11 3 -5 1 -10 -5 -10 -6 0 -9 -3 -7
-7 7 -11 -19 -33 -29 -25 -4 4 -4 -1 -1 -11 4 -10 3 -16 -2 -12 -5 3 -16 -4
-24 -15 -7 -11 -17 -17 -20 -13 -4 3 -7 0 -7 -9 0 -8 -10 -19 -22 -25 -29 -13
-70 -15 -63 -2 9 13 -9 11 -23 -3 -9 -9 -12 -9 -12 1 0 9 -9 12 -25 9 -14 -3
-28 -1 -32 5 -4 6 -1 7 7 2 9 -5 11 -4 6 4 -6 9 -11 9 -24 -1 -12 -10 -14 -10
-8 -1 4 7 2 13 -3 13 -6 0 -11 -6 -11 -12 0 -9 -3 -9 -9 1 -5 8 -18 12 -30 8
-12 -3 -24 -1 -27 4 -3 5 -10 7 -15 4 -5 -4 -9 -2 -9 2 0 5 -16 10 -36 11 -20
2 -46 8 -58 14 -25 14 -26 13 -37 -4 -7 -10 -9 -8 -9 6 0 13 -5 17 -20 13 -11
-3 -20 -2 -20 2 0 7 -15 11 -53 12 -11 0 -15 5 -10 12 4 7 -2 5 -12 -3 -11 -9
-16 -10 -11 -2 4 6 2 13 -3 13 -6 1 -14 3 -18 4 -5 1 -23 6 -40 10 -20 5 -30
12 -26 19 4 6 -2 4 -13 -4 -10 -8 -16 -10 -12 -6 5 5 -1 16 -12 23 -11 8 -18
18 -15 23 3 4 -2 11 -11 14 -8 3 -12 11 -9 16 4 6 1 18 -7 27 -11 14 -11 16 2
8 9 -5 7 1 -5 15 -12 14 -14 20 -5 15 12 -7 13 -6 3 6 -10 12 -10 18 0 29 8 9
9 11 0 6 -14 -8 -27 10 -13 19 6 4 8 11 4 16 -3 5 -10 6 -16 3 -6 -4 -5 3 2
16 9 16 9 20 1 15 -8 -5 -10 1 -5 21 5 19 4 25 -5 20 -14 -9 -10 16 4 26 6 5
5 8 -4 8 -7 0 -11 6 -7 15 3 8 1 15 -4 15 -6 0 -10 5 -10 11 0 5 6 7 13 3 10
-6 10 -4 0 7 -7 7 -13 17 -13 22 0 4 6 5 13 2 6 -4 5 -1 -3 7 -17 14 -19 45
-6 67 6 10 5 12 -2 7 -11 -7 -15 7 -15 57 0 9 -4 17 -8 17 -5 0 -9 5 -9 11 0
5 5 7 10 4 15 -9 12 2 -6 19 -8 9 -11 16 -5 16 6 0 8 7 5 15 -4 8 -11 12 -17
8 -6 -4 -7 -1 -1 8 13 21 16 59 4 59 -5 0 -10 5 -10 11 0 5 5 7 12 3 7 -5 8
-3 2 7 -11 18 -14 34 -15 82 -1 20 -5 37 -9 37 -3 0 -7 7 -7 15 0 8 5 15 11
15 6 0 5 4 -3 9 -8 5 -11 16 -8 25 4 9 3 16 -2 16 -5 0 -7 16 -4 36 3 21 1 34
-4 31 -13 -8 -11 36 2 45 6 5 6 8 -2 8 -7 0 -11 12 -9 28 1 15 -1 44 -5 64 -4
24 -2 39 5 42 6 2 4 5 -5 5 -12 1 -16 11 -15 40 1 22 5 43 9 47 4 4 -3 19 -15
32 -13 14 -17 22 -10 18 15 -9 17 20 2 29 -7 4 -7 12 -1 23 7 12 5 23 -7 36
-9 11 -12 16 -6 13 15 -9 20 8 20 60 -1 22 2 39 7 36 7 -4 11 13 7 32 -1 5 2
7 5 3 11 -11 47 11 39 24 -4 7 -3 8 5 4 6 -4 14 0 17 9 4 9 17 21 30 26 13 5
23 14 22 21 -2 7 3 12 11 10 12 -3 12 0 1 13 -11 13 -10 15 4 9 9 -3 16 -1 16
6 0 15 26 41 33 33 4 -3 4 5 2 17 -2 12 -2 20 1 17 4 -3 17 6 30 20 27 29 30
38 12 27 -7 -3 0 5 16 18 19 16 26 29 21 38 -5 7 -4 11 1 8 11 -7 35 17 27 26
-4 3 -1 6 5 6 7 0 12 7 12 15 0 8 5 15 11 15 6 0 8 7 5 16 -3 8 -2 12 4 9 5
-3 12 5 16 19 3 14 17 32 30 41 24 16 35 42 12 29 -7 -4 0 7 16 24 18 19 26
37 22 47 -3 9 -2 13 4 10 10 -6 60 74 60 98 0 10 5 17 11 17 5 0 8 4 5 9 -3 5
1 12 10 15 8 3 12 10 9 16 -3 6 1 13 9 16 13 5 13 10 4 27 -11 21 -10 21 7 7
11 -9 16 -10 11 -2 -4 7 1 24 12 40 10 15 23 34 27 42 8 13 7 13 -10 0 -18
-15 -18 -14 0 15 10 17 28 38 39 48 20 17 21 17 1 11 -19 -5 -19 -5 -1 10 10
8 16 22 13 31 -4 9 -1 15 10 15 13 0 13 3 3 16 -11 12 -11 15 1 12 9 -2 14 6
14 24 -1 20 2 24 11 17 9 -8 11 -5 7 10 -3 12 -1 21 5 21 5 0 15 13 20 29 9
26 8 29 -6 24 -15 -5 -15 -4 -2 8 22 19 47 54 34 46 -6 -3 -11 0 -11 8 0 8 5
13 11 12 6 -1 10 6 8 17 -2 10 1 16 6 12 5 -3 8 5 7 17 -1 12 2 25 7 28 5 3
10 16 11 27 1 12 5 22 10 22 4 0 5 5 2 10 -3 6 -1 10 5 10 8 0 7 6 -1 21 -9
17 -8 20 2 14 9 -6 11 -2 7 13 -4 12 -2 20 3 16 8 -5 13 9 10 28 0 4 6 22 14
41 8 19 11 37 8 40 -3 4 -1 13 5 20 7 8 9 17 5 20 -3 4 -1 7 6 7 7 0 9 5 6 10
-4 6 -12 8 -18 4 -7 -3 -1 4 12 15 14 13 18 21 10 21 -10 0 -10 3 -3 8 6 4 10
17 9 29 -1 13 3 19 8 16 6 -4 8 1 4 11 -4 10 -2 27 4 38 9 16 8 19 -3 12 -11
-6 -11 -5 1 9 7 9 11 28 9 42 -3 15 -1 22 5 18 6 -4 8 2 5 15 -4 12 -3 24 2
27 4 2 7 16 8 30 0 13 -4 22 -9 20 -4 -3 -6 5 -4 17 3 13 9 24 15 26 5 2 10 8
10 13 0 6 -6 7 -12 4 -7 -4 -4 1 6 9 17 14 15 20 -5 18 -3 -1 -4 10 -1 23 2
14 9 25 14 25 5 0 6 5 3 10 -4 6 -11 8 -16 5 -5 -4 -9 -1 -9 4 0 6 4 11 10 11
5 0 7 7 4 15 -4 8 -1 15 6 15 6 0 8 5 5 10 -4 6 -11 8 -16 5 -5 -4 -9 -1 -9 4
0 6 4 11 10 11 5 0 7 7 4 15 -4 9 -1 15 7 15 8 0 5 6 -7 15 -12 9 -14 14 -6
15 7 0 10 4 7 10 -3 5 0 20 6 32 12 22 11 22 -6 8 -12 -10 -16 -11 -11 -2 12
20 14 62 4 68 -5 3 -4 11 2 19 8 10 8 15 -1 21 -8 5 -9 3 -4 -6 5 -9 4 -11 -4
-6 -7 5 -8 13 -2 23 11 21 2 55 -13 46 -7 -4 -6 -1 1 9 7 8 9 19 5 23 -4 5 -2
5 5 1 6 -3 14 -2 18 4 3 5 17 10 30 10 13 0 26 6 29 13 5 9 7 9 12 0 3 -7 12
-9 20 -6 7 3 12 9 9 13 -3 5 0 12 6 16 8 4 9 3 5 -4 -10 -16 16 -15 33 1 11
10 12 9 6 -3 -8 -13 -6 -13 8 -2 9 8 21 11 27 7 5 -3 10 2 11 12 0 11 3 13 6
5 4 -10 8 -10 19 -1 8 6 14 8 14 3 0 -5 5 -2 10 6 6 10 10 11 10 3 0 -7 5 -13
11 -13 5 0 7 5 4 10 -5 9 7 14 27 11 4 0 5 7 3 17 -10 53 -19 72 -31 72 -8 0
-14 10 -14 25 0 13 -6 28 -13 32 -8 4 -16 16 -20 26 -3 9 -13 17 -22 17 -8 0
-15 5 -15 10 0 6 -7 10 -16 10 -8 0 -12 5 -9 10 3 6 2 10 -3 10 -12 0 -10 43
3 52 6 4 1 8 -10 8 -13 0 -16 3 -8 8 15 9 13 123 -2 134 -6 5 -5 8 3 8 7 0 10
5 7 10 -4 6 -12 7 -18 3 -7 -4 -7 0 1 10 8 9 11 21 7 27 -3 5 0 10 7 10 9 1 8
4 -3 10 -10 6 -15 20 -14 35 2 14 -1 25 -6 25 -6 0 -7 5 -4 10 4 6 11 8 16 5
5 -3 6 1 3 9 -3 9 -10 16 -14 16 -7 0 -10 23 -11 73 0 10 -5 15 -11 11 -7 -4
-8 -2 -4 5 4 6 2 19 -6 28 -11 14 -11 16 1 9 10 -7 12 -3 6 15 -4 13 -13 30
-19 38 -9 12 -8 13 3 6 11 -6 11 -3 -2 14 -8 13 -13 30 -10 37 3 8 0 14 -6 14
-9 0 -9 5 0 21 7 14 7 19 0 15 -5 -4 -15 2 -20 13 -8 14 -8 21 2 24 9 4 9 6 0
6 -7 1 -13 8 -13 16 0 8 -6 15 -12 15 -9 0 -8 4 2 10 10 6 11 10 3 10 -7 0
-13 9 -13 19 0 11 -4 23 -10 26 -5 3 -15 16 -22 28 -11 21 -10 21 8 7 18 -14
18 -13 -1 10 -11 14 -24 28 -30 32 -6 5 -5 8 3 8 7 0 10 5 7 10 -4 6 -11 7
-17 4 -6 -4 -8 -2 -4 4 3 6 -1 17 -9 25 -11 12 -12 17 -2 20 6 3 3 6 -8 6 -15
1 -17 3 -6 10 11 7 9 10 -7 15 -12 4 -19 13 -16 20 6 16 -30 58 -42 48 -4 -4
-3 0 3 8 8 11 8 18 -2 27 -7 6 -15 10 -17 7 -3 -2 -5 2 -5 9 0 16 -43 77 -55
77 -4 0 -8 9 -8 20 0 18 -10 24 -32 21 -4 0 -5 8 -3 19 4 18 -6 25 -28 21 -5
-1 -7 4 -5 11 5 15 -44 68 -64 68 -10 0 -9 3 2 10 11 7 12 10 2 10 -18 0 -82
66 -74 76 4 5 -1 2 -10 -5 -16 -12 -18 -11 -18 3 0 10 -4 15 -9 11 -5 -3 -13
0 -17 6 -4 8 -3 9 4 5 7 -4 12 -3 12 1 0 5 -9 14 -21 21 -17 11 -20 11 -13 0
4 -7 -9 4 -29 25 -19 20 -40 37 -46 37 -6 0 -11 5 -11 11 0 5 -5 7 -10 4 -6
-3 -13 1 -16 9 -3 9 -11 16 -16 16 -6 0 -18 9 -27 19 -9 11 -26 21 -36 23 -11
1 -27 11 -36 20 -12 14 -18 15 -29 5 -8 -7 -10 -7 -7 -1 9 16 -27 46 -57 48
-14 0 -26 5 -26 9 0 5 -5 5 -10 2 -6 -4 -9 -1 -8 7 2 7 -3 12 -9 10 -7 -1 -13
4 -13 10 0 9 -4 8 -10 -2 -7 -11 -10 -11 -10 -2 0 7 -4 10 -10 7 -5 -3 -10 1
-10 9 0 9 -8 16 -19 16 -10 0 -31 6 -46 14 -15 8 -34 12 -43 9 -11 -5 -13 -3
-7 7 6 10 4 12 -8 7 -9 -3 -18 0 -21 9 -3 8 -9 14 -13 13 -24 -4 -63 2 -59 9
3 5 -1 9 -9 9 -8 0 -11 -5 -8 -11 4 -6 -4 -2 -17 9 -15 13 -21 15 -16 5 4 -8
1 -7 -7 3 -9 11 -18 14 -21 8 -4 -6 -13 -8 -21 -5 -8 4 -12 11 -8 17 4 6 0 8
-10 4 -10 -3 -17 -3 -17 2 0 4 -10 7 -22 6 -13 -1 -29 2 -35 8 -9 6 -13 5 -13
-3 0 -10 -4 -9 -17 2 -10 8 -33 14 -50 13 -18 0 -33 2 -33 5 0 3 -13 5 -30 4
-16 -1 -30 2 -30 7 0 5 -5 9 -11 9 -5 0 -7 -6 -4 -12 4 -7 -1 -4 -9 6 -9 11
-16 15 -16 10 0 -5 -20 -9 -44 -9 -24 0 -42 3 -39 8 2 4 1 7 -4 8 -4 0 -16 2
-26 4 -9 2 -15 -1 -11 -6 3 -5 1 -9 -5 -9 -5 0 -13 5 -16 10 -4 7 -12 7 -25 0
-13 -7 -20 -6 -23 3 -4 9 -6 9 -6 0 -1 -7 -6 -13 -12 -13 -5 0 -7 6 -3 13 5 8
2 8 -9 -2 -13 -10 -17 -10 -17 -1 0 10 -3 10 -15 0 -12 -10 -15 -10 -15 1 0
11 -2 11 -10 -1 -6 -9 -13 -11 -17 -5 -10 13 -36 18 -29 6 4 -5 -3 -9 -14 -8
-11 1 -20 5 -20 10 0 5 -6 4 -14 -2 -9 -8 -16 -8 -20 -2 -6 9 -50 6 -67 -5 -4
-2 -10 0 -14 5 -5 10 -36 7 -55 -4 -6 -3 -10 0 -10 7 0 9 -3 9 -10 -2 -9 -13
-10 -13 -10 0 0 12 -2 12 -9 2 -4 -8 -12 -14 -16 -14 -4 0 -12 6 -17 14 -8 10
-11 11 -15 0 -4 -10 -8 -10 -21 0 -12 10 -14 10 -8 1 4 -7 2 -13 -3 -13 -6 0
-11 6 -11 13 0 9 -3 8 -9 -2 -6 -9 -10 -10 -16 -2 -5 9 -10 9 -21 0 -11 -9
-14 -9 -14 1 0 10 -3 10 -15 0 -12 -10 -15 -10 -15 1 0 11 -2 11 -10 -1 -6 -9
-13 -11 -17 -5 -10 13 -36 18 -29 6 4 -5 -3 -9 -14 -8 -11 1 -20 5 -20 10 0 5
-6 4 -14 -2 -9 -8 -16 -8 -20 -2 -6 9 -50 6 -67 -5 -4 -2 -10 0 -14 5 -5 10
-36 7 -55 -4 -6 -3 -10 0 -10 7 0 9 -3 9 -10 -2 -9 -13 -10 -13 -10 0 0 12 -2
12 -9 2 -4 -8 -12 -14 -16 -14 -4 0 -12 6 -17 14 -8 10 -11 11 -15 0 -4 -10
-8 -10 -21 0 -12 10 -14 10 -8 1 4 -7 2 -13 -3 -13 -6 0 -11 6 -11 13 0 9 -3
8 -9 -2 -6 -9 -10 -10 -16 -2 -5 9 -10 9 -21 0 -11 -9 -14 -9 -14 1 0 10 -3
10 -15 0 -12 -10 -15 -10 -15 1 0 11 -2 11 -9 0 -8 -12 -12 -12 -25 -2 -9 8
-16 9 -16 4z m1910 -4937 c0 -3 -4 -8 -10 -11 -5 -3 -10 -1 -10 4 0 6 5 11 10
11 6 0 10 -2 10 -4z m-3795 -1284 c-3 -3 -11 0 -18 7 -9 10 -8 11 6 5 10 -3
15 -9 12 -12z m105 -1252 c0 -5 -2 -10 -4 -10 -3 0 -8 5 -11 10 -3 6 -1 10 4
10 6 0 11 -4 11 -10z"/>
</g>
</svg>
